{
  "accessors": [
    {
      "bufferView": 2,
      "componentType": 5126,
      "count": 5177,
      "max": [
        3.4226999282836914,
        -0.11819999665021896,
        3.4226999282836914
      ],
      "min": [
        -3.422800064086914,
        -7.0742998123168945,
        -3.4226999282836914
      ],
      "type": "VEC3"
    },
    {
      "bufferView": 2,
      "byteOffset": 62124,
      "componentType": 5126,
      "count": 5177,
      "max": [
        1.0,
        1.0,
        1.0
      ],
      "min": [
        -1.0,
        -1.0,
        -1.0
      ],
      "type": "VEC3"
    },
    {
      "bufferView": 1,
      "componentType": 5126,
      "count": 5177,
      "max": [
        1.0,
        1.0
      ],
      "min": [
        0.0,
        0.0
      ],
      "type": "VEC2"
    },
    {
      "bufferView": 0,
      "componentType": 5125,
      "count": 29760,
      "type": "SCALAR"
    },
    {
      "bufferView": 2,
      "byteOffset": 124248,
      "componentType": 5126,
      "count": 35022,
      "max": [
        3.490600109100342,
        -2.975100040435791,
        3.490600109100342
      ],
      "min": [
        -3.4907000064849854,
        -4.201900005340576,
        -3.4907000064849854
      ],
      "type": "VEC3"
    },
    {
      "bufferView": 2,
      "byteOffset": 544512,
      "componentType": 5126,
      "count": 35022,
      "max": [
        0.9999911785125732,
        0.9999872446060181,
        0.9999911785125732
      ],
      "min": [
        -0.9999911785125732,
        -0.9999872446060181,
        -0.9999911785125732
      ],
      "type": "VEC3"
    },
    {
      "bufferView": 1,
      "byteOffset": 41416,
      "componentType": 5126,
      "count": 35022,
      "max": [
        1.0,
        1.0
      ],
      "min": [
        0.0,
        0.0
      ],
      "type": "VEC2"
    },
    {
      "bufferView": 0,
      "byteOffset": 119040,
      "componentType": 5125,
      "count": 193536,
      "type": "SCALAR"
    }
  ],
  "asset": {
    "extras": {
      "author": "Soubhagya Ranjan Sahoo (https://sketchfab.com/soubhagyarsahoo.1999)",
      "license": "CC-BY-4.0 (http://creativecommons.org/licenses/by/4.0/)",
      "source": "https://sketchfab.com/3d-models/leather-cricket-ball-3d-a215508653e14f728845ac14a6466f6b",
      "title": "Leather Cricket Ball 3D"
    },
    "generator": "Sketchfab-12.68.0",
    "version": "2.0"
  },
  "bufferViews": [
    {
      "buffer": 0,
      "byteLength": 893184,
      "name": "floatBufferViews",
      "target": 34963
    },
    {
      "buffer": 0,
      "byteLength": 321592,
      "byteOffset": 893184,
      "byteStride": 8,
      "name": "floatBufferViews",
      "target": 34962
    },
    {
      "buffer": 0,
      "byteLength": 964776,
      "byteOffset": 1214776,
      "byteStride": 12,
      "name": "floatBufferViews",
      "target": 34962
    }
  ],
  "buffers": [
    {
      "byteLength": 2179552,
      "uri": "scene.bin"
    }
  ],
  "extensionsRequired": [
    "KHR_materials_pbrSpecularGlossiness"
  ],
  "extensionsUsed": [
    "KHR_materials_pbrSpecularGlossiness"
  ],
  "images": [
    {
      "uri": "textures/11715_ball_v3_L1ball_body_diffuse.jpeg"
    },
    {
      "uri": "textures/11715_ball_v3_L1ball_thread_diffuse.jpeg"
    }
  ],
  "materials": [
    {
      "doubleSided": true,
      "extensions": {
        "KHR_materials_pbrSpecularGlossiness": {
          "diffuseFactor": [
            1.0,
            1.0,
            1.0,
            1.0
          ],
          "diffuseTexture": {
            "index": 0
          },
          "glossinessFactor": 0.10484821455116414,
          "specularFactor": [
            0.0,
            0.0,
            0.0
          ]
        }
      },
      "name": "11715_ball_v3_L1ball_body"
    },
    {
      "doubleSided": true,
      "emissiveTexture": {
        "index": 1
      },
      "extensions": {
        "KHR_materials_pbrSpecularGlossiness": {
          "diffuseFactor": [
            1.0,
            1.0,
            1.0,
            1.0
          ],
          "diffuseTexture": {
            "index": 1
          },
          "glossinessFactor": 0.05628378190187266,
          "specularFactor": [
            0.0,
            0.0,
            0.0
          ]
        }
      },
      "name": "11715_ball_v3_L1ball_thread"
    }
  ],
  "meshes": [
    {
      "name": "Object_0",
      "primitives": [
        {
          "attributes": {
            "NORMAL": 1,
            "POSITION": 0,
            "TEXCOORD_0": 2
          },
          "indices": 3,
          "material": 0,
          "mode": 4
        }
      ]
    },
    {
      "name": "Object_1",
      "primitives": [
        {
          "attributes": {
            "NORMAL": 5,
            "POSITION": 4,
            "TEXCOORD_0": 6
          },
          "indices": 7,
          "material": 1,
          "mode": 4
        }
      ]
    }
  ],
  "nodes": [
    {
      "children": [
        1
      ],
      "matrix": [
        0.04673536866903305,
        0.0,
        0.0,
        0.0,
        0.0,
        0.009589796179464437,
        -0.045740907315134915,
        0.0,
        0.0,
        0.045740907315134915,
        0.009589796179464437,
        0.0,
        0.0,
        0.7379255890846252,
        0.07653287798166292,
        1.0
      ],
      "name": "Sketchfab_model"
    },
    {
      "children": [
        2,
        3
      ],
      "name": "11715_ball_v3_L1.obj.cleaner.materialmerger.gles"
    },
    {
      "mesh": 0,
      "name": "Object_2"
    },
    {
      "mesh": 1,
      "name": "Object_3"
    }
  ],
  "samplers": [
    {
      "magFilter": 9729,
      "minFilter": 9987,
      "wrapS": 10497,
      "wrapT": 10497
    }
  ],
  "scene": 0,
  "scenes": [
    {
      "name": "Sketchfab_Scene",
      "nodes": [
        0
      ]
    }
  ],
  "textures": [
    {
      "sampler": 0,
      "source": 0
    },
    {
      "sampler": 0,
      "source": 1
    }
  ]
}
